<?xml version="1.0" encoding="UTF-8" standalone="no"?>
<!-- Generator: Adobe Illustrator 15.1.0, SVG Export Plug-In . SVG Version: 6.00 Build 0)  -->

<svg
   xmlns:dc="http://purl.org/dc/elements/1.1/"
   xmlns:cc="http://creativecommons.org/ns#"
   xmlns:rdf="http://www.w3.org/1999/02/22-rdf-syntax-ns#"
   xmlns:svg="http://www.w3.org/2000/svg"
   xmlns="http://www.w3.org/2000/svg"
   xmlns:sodipodi="http://sodipodi.sourceforge.net/DTD/sodipodi-0.dtd"
   xmlns:inkscape="http://www.inkscape.org/namespaces/inkscape"
   version="1.1"
   id="Layer_1"
   x="0px"
   y="0px"
   width="56.69px"
   height="56.69px"
   viewBox="0 0 56.69 56.69"
   enable-background="new 0 0 56.69 56.69"
   xml:space="preserve"
   sodipodi:docname="arrowPrev.svg"
   inkscape:version="0.92.2 (5c3e80d, 2017-08-06)"><metadata
     id="metadata865"><rdf:RDF><cc:Work
         rdf:about=""><dc:format>image/svg+xml</dc:format><dc:type
           rdf:resource="http://purl.org/dc/dcmitype/StillImage" /></cc:Work></rdf:RDF></metadata><defs
     id="defs863" /><sodipodi:namedview
     pagecolor="#ffffff"
     bordercolor="#666666"
     borderopacity="1"
     objecttolerance="10"
     gridtolerance="10"
     guidetolerance="10"
     inkscape:pageopacity="0"
     inkscape:pageshadow="2"
     inkscape:window-width="1366"
     inkscape:window-height="705"
     id="namedview861"
     showgrid="false"
     inkscape:zoom="4.1629918"
     inkscape:cx="28.344999"
     inkscape:cy="28.344999"
     inkscape:window-x="-8"
     inkscape:window-y="-8"
     inkscape:window-maximized="1"
     inkscape:current-layer="Layer_1" /><style
     type="text/css"
     id="style854">
	.st0{fill-rule:evenodd;clip-rule:evenodd;fill:#ffffff;}
</style><g
     id="g858"
     style="fill:#00b90c;fill-opacity:1"><path
       class="st0"
       d="M37.176,50.505c-1.202,0-2.332-0.468-3.182-1.318L16.335,31.528c-0.852-0.852-1.32-1.982-1.32-3.184   c0-1.202,0.468-2.332,1.318-3.182l17.661-17.66c0.85-0.85,1.979-1.318,3.182-1.318s2.332,0.468,3.182,1.318   c0.851,0.85,1.318,1.98,1.318,3.183s-0.469,2.333-1.318,3.182L25.879,28.345l14.479,14.478c0.85,0.85,1.318,1.979,1.318,3.182   s-0.469,2.332-1.318,3.182C39.508,50.037,38.377,50.505,37.176,50.505z M17.718,30.082l0.031,0.03l17.66,17.66   c0.945,0.945,2.59,0.945,3.535,0c0.473-0.473,0.732-1.1,0.732-1.768s-0.26-1.295-0.732-1.768L23.051,28.345l15.893-15.892   c0.473-0.472,0.732-1.1,0.732-1.768s-0.26-1.296-0.732-1.769c-0.945-0.944-2.59-0.944-3.535,0l-17.661,17.66   c-0.472,0.472-0.732,1.1-0.732,1.767C17.015,28.998,17.264,29.613,17.718,30.082z"
       id="path856"
       style="fill:#00b90c;fill-opacity:1" /></g></svg>