<?xml version="1.0" encoding="UTF-8" standalone="no"?>
<!-- Generator: Adobe Illustrator 15.1.0, SVG Export Plug-In . SVG Version: 6.00 Build 0)  -->

<svg
   xmlns:dc="http://purl.org/dc/elements/1.1/"
   xmlns:cc="http://creativecommons.org/ns#"
   xmlns:rdf="http://www.w3.org/1999/02/22-rdf-syntax-ns#"
   xmlns:svg="http://www.w3.org/2000/svg"
   xmlns="http://www.w3.org/2000/svg"
   xmlns:sodipodi="http://sodipodi.sourceforge.net/DTD/sodipodi-0.dtd"
   xmlns:inkscape="http://www.inkscape.org/namespaces/inkscape"
   version="1.1"
   id="Layer_1"
   x="0px"
   y="0px"
   width="56.69px"
   height="56.69px"
   viewBox="0 0 56.69 56.69"
   enable-background="new 0 0 56.69 56.69"
   xml:space="preserve"
   sodipodi:docname="arrowup.svg"
   inkscape:version="0.92.2 (5c3e80d, 2017-08-06)"><metadata
     id="metadata839"><rdf:RDF><cc:Work
         rdf:about=""><dc:format>image/svg+xml</dc:format><dc:type
           rdf:resource="http://purl.org/dc/dcmitype/StillImage" /></cc:Work></rdf:RDF></metadata><defs
     id="defs837" /><sodipodi:namedview
     pagecolor="#ffffff"
     bordercolor="#666666"
     borderopacity="1"
     objecttolerance="10"
     gridtolerance="10"
     guidetolerance="10"
     inkscape:pageopacity="0"
     inkscape:pageshadow="2"
     inkscape:window-width="1366"
     inkscape:window-height="705"
     id="namedview835"
     showgrid="false"
     inkscape:zoom="9.4549306"
     inkscape:cx="28.344999"
     inkscape:cy="28.344999"
     inkscape:window-x="-8"
     inkscape:window-y="-8"
     inkscape:window-maximized="1"
     inkscape:current-layer="Layer_1" /><style
     type="text/css"
     id="style828">
	.st0{fill-rule:evenodd;clip-rule:evenodd;fill:#ffcc00;}
</style><g
     id="g832"
     style="fill:#00b90c;fill-opacity:1"><path
       class="st0"
       d="M46.005,41.676c-1.202,0-2.332-0.469-3.182-1.318L28.345,25.879L13.868,40.357c-0.849,0.85-1.979,1.318-3.182,1.318   s-2.333-0.468-3.183-1.318c-1.754-1.754-1.754-4.609,0-6.363l17.66-17.661c0.849-0.85,1.979-1.318,3.181-1.318   c1.201,0,2.332,0.468,3.182,1.318l17.66,17.661c0.851,0.85,1.318,1.979,1.318,3.182c0,1.201-0.468,2.332-1.318,3.182   C48.337,41.207,47.207,41.676,46.005,41.676z M28.345,23.051l15.892,15.893c0.945,0.945,2.59,0.945,3.535,0   c0.473-0.473,0.732-1.101,0.732-1.768s-0.26-1.295-0.732-1.768L30.067,17.704c-0.945-0.902-2.56-0.887-3.489,0.043L8.917,35.408   c-0.975,0.975-0.975,2.561,0,3.535c0.945,0.945,2.592,0.945,3.536,0L28.345,23.051z"
       id="path830"
       style="fill:#00b90c;fill-opacity:1" /></g></svg>